# xmcd
#
# Track frame offsets: 
#        150
#        9454
#        19881
#        32423
#        44281
#        55504
#        64370
#        71934
#        80472
#        90167
#        100377
#        110785
#
# Disc length: 1642 seconds
#
# Revision: 0
# Processed by: cddbd v1.5.2PL0 Copyright (c) Steve Scherf et al.
# Submitted via: ExactAudioCopyFreeDBPlugin 1.0
#
DISCID=9706680c
DTITLE=Johnny Cash - The Best Of Johnny Cash
DYEAR=2010
DGENRE=Country
TTITLE0=Luther's Boogie
TTITLE1=There You Go
TTITLE2=Home Of The Blues
TTITLE3=Thanks A Lot
TTITLE4=Mean Eyed Cat
TTITLE5=Katy Too
TTITLE6=Come In Stranger
TTITLE7=I Forgot To Remember To Forget
TTITLE8=Just About Time
TTITLE9=The Ways Of A Woman In Love
TTITLE10=You Win Again
TTITLE11=Next In Line
EXTD=
EXTT0=
EXTT1=
EXTT2=
EXTT3=
EXTT4=
EXTT5=
EXTT6=
EXTT7=
EXTT8=
EXTT9=
EXTT10=
EXTT11=
PLAYORDER=
